<mxfile host="app.diagrams.net" modified="2020-10-16T20:09:26.196Z" agent="5.0 (Macintosh; Intel Mac OS X 10_15_7) AppleWebKit/605.1.15 (KHTML, like Gecko) Version/14.0 Safari/605.1.15" etag="qi6D0ydYfb7n1BOclQ63" version="13.8.0" type="github">
  <diagram id="L57OoSPGVFHZ4M9xEeLx" name="Page-1">
    <mxGraphModel dx="1047" dy="913" grid="1" gridSize="10" guides="1" tooltips="1" connect="1" arrows="1" fold="1" page="1" pageScale="1" pageWidth="850" pageHeight="1100" math="0" shadow="0">
      <root>
        <mxCell id="0" />
        <mxCell id="1" parent="0" />
        <mxCell id="2hWn7nPDc2WVTGScbuD9-1" value="" style="endArrow=none;dashed=1;html=1;" edge="1" parent="1">
          <mxGeometry width="50" height="50" relative="1" as="geometry">
            <mxPoint y="680" as="sourcePoint" />
            <mxPoint x="849" y="680" as="targetPoint" />
          </mxGeometry>
        </mxCell>
        <mxCell id="2hWn7nPDc2WVTGScbuD9-3" value="" style="rounded=1;whiteSpace=wrap;html=1;fillColor=#d5e8d4;strokeColor=#82b366;" vertex="1" parent="1">
          <mxGeometry x="105" y="80" width="450" height="220" as="geometry" />
        </mxCell>
        <mxCell id="2hWn7nPDc2WVTGScbuD9-8" value="Flight Controller" style="text;html=1;resizable=0;autosize=1;align=center;verticalAlign=middle;points=[];fillColor=none;strokeColor=none;rounded=0;" vertex="1" parent="1">
          <mxGeometry x="280" y="80" width="100" height="20" as="geometry" />
        </mxCell>
        <mxCell id="2hWn7nPDc2WVTGScbuD9-61" style="edgeStyle=orthogonalEdgeStyle;rounded=0;orthogonalLoop=1;jettySize=auto;html=1;exitX=1;exitY=0.5;exitDx=0;exitDy=0;entryX=0;entryY=0.5;entryDx=0;entryDy=0;endArrow=none;endFill=0;strokeWidth=1;shape=link;" edge="1" parent="1" source="2hWn7nPDc2WVTGScbuD9-10" target="2hWn7nPDc2WVTGScbuD9-60">
          <mxGeometry relative="1" as="geometry" />
        </mxCell>
        <mxCell id="2hWn7nPDc2WVTGScbuD9-10" value="Accelerometer" style="rounded=0;whiteSpace=wrap;html=1;" vertex="1" parent="1">
          <mxGeometry x="125" y="120" width="90" height="40" as="geometry" />
        </mxCell>
        <mxCell id="2hWn7nPDc2WVTGScbuD9-62" style="edgeStyle=orthogonalEdgeStyle;shape=link;rounded=0;orthogonalLoop=1;jettySize=auto;html=1;exitX=1;exitY=0.5;exitDx=0;exitDy=0;entryX=0;entryY=0.5;entryDx=0;entryDy=0;endArrow=none;endFill=0;strokeWidth=1;" edge="1" parent="1" source="2hWn7nPDc2WVTGScbuD9-11" target="2hWn7nPDc2WVTGScbuD9-60">
          <mxGeometry relative="1" as="geometry" />
        </mxCell>
        <mxCell id="2hWn7nPDc2WVTGScbuD9-11" value="Gyro" style="rounded=0;whiteSpace=wrap;html=1;" vertex="1" parent="1">
          <mxGeometry x="125" y="170" width="90" height="40" as="geometry" />
        </mxCell>
        <mxCell id="2hWn7nPDc2WVTGScbuD9-63" style="edgeStyle=orthogonalEdgeStyle;shape=link;rounded=0;orthogonalLoop=1;jettySize=auto;html=1;exitX=1;exitY=0.5;exitDx=0;exitDy=0;entryX=0;entryY=0.5;entryDx=0;entryDy=0;endArrow=none;endFill=0;strokeWidth=1;" edge="1" parent="1" source="2hWn7nPDc2WVTGScbuD9-12" target="2hWn7nPDc2WVTGScbuD9-60">
          <mxGeometry relative="1" as="geometry" />
        </mxCell>
        <mxCell id="2hWn7nPDc2WVTGScbuD9-12" value="Magnetometer" style="rounded=0;whiteSpace=wrap;html=1;" vertex="1" parent="1">
          <mxGeometry x="125" y="220" width="90" height="40" as="geometry" />
        </mxCell>
        <mxCell id="2hWn7nPDc2WVTGScbuD9-13" value="Ground&amp;nbsp;Station" style="text;html=1;strokeColor=none;fillColor=none;align=center;verticalAlign=middle;whiteSpace=wrap;rounded=0;" vertex="1" parent="1">
          <mxGeometry x="370" y="680" width="110" height="20" as="geometry" />
        </mxCell>
        <mxCell id="2hWn7nPDc2WVTGScbuD9-14" value="Quad Copter" style="text;html=1;strokeColor=none;fillColor=none;align=center;verticalAlign=middle;whiteSpace=wrap;rounded=0;" vertex="1" parent="1">
          <mxGeometry x="385" width="80" height="20" as="geometry" />
        </mxCell>
        <mxCell id="2hWn7nPDc2WVTGScbuD9-43" style="edgeStyle=orthogonalEdgeStyle;shape=link;rounded=0;orthogonalLoop=1;jettySize=auto;html=1;exitX=0;exitY=0.5;exitDx=0;exitDy=0;entryX=1;entryY=0.5;entryDx=0;entryDy=0;endArrow=none;endFill=0;" edge="1" parent="1" source="2hWn7nPDc2WVTGScbuD9-16" target="2hWn7nPDc2WVTGScbuD9-41">
          <mxGeometry relative="1" as="geometry" />
        </mxCell>
        <mxCell id="2hWn7nPDc2WVTGScbuD9-16" value="GPS Antenna" style="rounded=1;whiteSpace=wrap;html=1;fillColor=#f8cecc;strokeColor=#b85450;" vertex="1" parent="1">
          <mxGeometry x="615" y="80" width="130" height="60" as="geometry" />
        </mxCell>
        <mxCell id="2hWn7nPDc2WVTGScbuD9-19" value="Telemetry Radio" style="rounded=1;whiteSpace=wrap;html=1;fillColor=#f8cecc;strokeColor=#b85450;" vertex="1" parent="1">
          <mxGeometry x="615" y="240" width="130" height="60" as="geometry" />
        </mxCell>
        <mxCell id="2hWn7nPDc2WVTGScbuD9-23" value="Sensors" style="text;html=1;resizable=0;autosize=1;align=center;verticalAlign=middle;points=[];fillColor=none;strokeColor=none;rounded=0;" vertex="1" parent="1">
          <mxGeometry x="140" y="90" width="60" height="20" as="geometry" />
        </mxCell>
        <mxCell id="2hWn7nPDc2WVTGScbuD9-28" value="" style="rounded=1;whiteSpace=wrap;html=1;fillColor=#f5f5f5;strokeColor=#666666;fontColor=#333333;" vertex="1" parent="1">
          <mxGeometry x="105" y="780" width="450" height="220" as="geometry" />
        </mxCell>
        <mxCell id="2hWn7nPDc2WVTGScbuD9-29" value="Ground Control Station (Laptop)" style="text;html=1;strokeColor=none;fillColor=none;align=center;verticalAlign=middle;whiteSpace=wrap;rounded=0;" vertex="1" parent="1">
          <mxGeometry x="232.5" y="780" width="195" height="20" as="geometry" />
        </mxCell>
        <mxCell id="2hWn7nPDc2WVTGScbuD9-33" style="edgeStyle=orthogonalEdgeStyle;shape=link;rounded=0;orthogonalLoop=1;jettySize=auto;html=1;exitX=0.5;exitY=1;exitDx=0;exitDy=0;entryX=0.5;entryY=0;entryDx=0;entryDy=0;endArrow=none;endFill=0;" edge="1" parent="1" source="2hWn7nPDc2WVTGScbuD9-30" target="2hWn7nPDc2WVTGScbuD9-32">
          <mxGeometry relative="1" as="geometry" />
        </mxCell>
        <mxCell id="2hWn7nPDc2WVTGScbuD9-37" style="edgeStyle=orthogonalEdgeStyle;shape=link;rounded=0;orthogonalLoop=1;jettySize=auto;html=1;exitX=1;exitY=0.5;exitDx=0;exitDy=0;entryX=0;entryY=0.5;entryDx=0;entryDy=0;endArrow=none;endFill=0;" edge="1" parent="1" source="2hWn7nPDc2WVTGScbuD9-30" target="2hWn7nPDc2WVTGScbuD9-35">
          <mxGeometry relative="1" as="geometry" />
        </mxCell>
        <mxCell id="2hWn7nPDc2WVTGScbuD9-30" value="QGroundControl" style="rounded=1;whiteSpace=wrap;html=1;" vertex="1" parent="1">
          <mxGeometry x="140" y="820" width="120" height="60" as="geometry" />
        </mxCell>
        <mxCell id="2hWn7nPDc2WVTGScbuD9-36" style="edgeStyle=orthogonalEdgeStyle;shape=link;rounded=0;orthogonalLoop=1;jettySize=auto;html=1;exitX=0;exitY=0.5;exitDx=0;exitDy=0;entryX=1;entryY=0.5;entryDx=0;entryDy=0;endArrow=none;endFill=0;" edge="1" parent="1" source="2hWn7nPDc2WVTGScbuD9-31" target="2hWn7nPDc2WVTGScbuD9-35">
          <mxGeometry relative="1" as="geometry" />
        </mxCell>
        <mxCell id="2hWn7nPDc2WVTGScbuD9-84" style="edgeStyle=orthogonalEdgeStyle;rounded=1;orthogonalLoop=1;jettySize=auto;html=1;exitX=1;exitY=0.5;exitDx=0;exitDy=0;entryX=1;entryY=0.5;entryDx=0;entryDy=0;startArrow=block;startFill=0;endArrow=block;endFill=0;strokeWidth=1;shape=flexArrow;dashed=1;dashPattern=1 1;" edge="1" parent="1" source="2hWn7nPDc2WVTGScbuD9-31" target="2hWn7nPDc2WVTGScbuD9-19">
          <mxGeometry relative="1" as="geometry">
            <Array as="points">
              <mxPoint x="790" y="890" />
              <mxPoint x="790" y="270" />
            </Array>
          </mxGeometry>
        </mxCell>
        <mxCell id="2hWn7nPDc2WVTGScbuD9-31" value="Telemetry Radio" style="rounded=1;whiteSpace=wrap;html=1;fillColor=#f8cecc;strokeColor=#b85450;" vertex="1" parent="1">
          <mxGeometry x="590" y="860" width="130" height="60" as="geometry" />
        </mxCell>
        <mxCell id="2hWn7nPDc2WVTGScbuD9-32" value="Custom Image Processing" style="rounded=1;whiteSpace=wrap;html=1;" vertex="1" parent="1">
          <mxGeometry x="140" y="900" width="120" height="60" as="geometry" />
        </mxCell>
        <mxCell id="2hWn7nPDc2WVTGScbuD9-34" value="Radio Control&lt;br&gt;Receiver" style="rounded=1;whiteSpace=wrap;html=1;fillColor=#f8cecc;strokeColor=#b85450;" vertex="1" parent="1">
          <mxGeometry x="615" y="160" width="130" height="60" as="geometry" />
        </mxCell>
        <mxCell id="2hWn7nPDc2WVTGScbuD9-35" value="USB" style="rounded=0;whiteSpace=wrap;html=1;" vertex="1" parent="1">
          <mxGeometry x="485" y="845" width="70" height="90" as="geometry" />
        </mxCell>
        <mxCell id="2hWn7nPDc2WVTGScbuD9-85" style="edgeStyle=orthogonalEdgeStyle;shape=flexArrow;rounded=1;orthogonalLoop=1;jettySize=auto;html=1;exitX=1;exitY=0.5;exitDx=0;exitDy=0;entryX=1;entryY=0.5;entryDx=0;entryDy=0;dashed=1;dashPattern=1 1;startArrow=none;startFill=0;endArrow=block;endFill=0;strokeWidth=1;" edge="1" parent="1" source="2hWn7nPDc2WVTGScbuD9-39" target="2hWn7nPDc2WVTGScbuD9-34">
          <mxGeometry relative="1" as="geometry">
            <Array as="points">
              <mxPoint x="830" y="970" />
              <mxPoint x="830" y="190" />
            </Array>
          </mxGeometry>
        </mxCell>
        <mxCell id="2hWn7nPDc2WVTGScbuD9-39" value="Radio Control Transmitter" style="rounded=1;whiteSpace=wrap;html=1;fillColor=#f5f5f5;strokeColor=#666666;fontColor=#333333;" vertex="1" parent="1">
          <mxGeometry x="590" y="940" width="130" height="60" as="geometry" />
        </mxCell>
        <mxCell id="2hWn7nPDc2WVTGScbuD9-42" style="edgeStyle=orthogonalEdgeStyle;shape=link;rounded=0;orthogonalLoop=1;jettySize=auto;html=1;exitX=1;exitY=0.5;exitDx=0;exitDy=0;entryX=0;entryY=0.5;entryDx=0;entryDy=0;endArrow=none;endFill=0;" edge="1" parent="1" source="2hWn7nPDc2WVTGScbuD9-41" target="2hWn7nPDc2WVTGScbuD9-34">
          <mxGeometry relative="1" as="geometry" />
        </mxCell>
        <mxCell id="2hWn7nPDc2WVTGScbuD9-44" style="edgeStyle=orthogonalEdgeStyle;shape=link;rounded=0;orthogonalLoop=1;jettySize=auto;html=1;exitX=1;exitY=0.5;exitDx=0;exitDy=0;entryX=0;entryY=0.5;entryDx=0;entryDy=0;endArrow=none;endFill=0;" edge="1" parent="1" source="2hWn7nPDc2WVTGScbuD9-41" target="2hWn7nPDc2WVTGScbuD9-19">
          <mxGeometry relative="1" as="geometry" />
        </mxCell>
        <mxCell id="2hWn7nPDc2WVTGScbuD9-41" value="Auxiliary Interface" style="rounded=0;whiteSpace=wrap;html=1;" vertex="1" parent="1">
          <mxGeometry x="495" y="120" width="60" height="140" as="geometry" />
        </mxCell>
        <mxCell id="2hWn7nPDc2WVTGScbuD9-45" value="" style="rounded=1;whiteSpace=wrap;html=1;fillColor=#fff2cc;strokeColor=#d6b656;" vertex="1" parent="1">
          <mxGeometry x="380" y="330" width="175" height="180" as="geometry" />
        </mxCell>
        <mxCell id="2hWn7nPDc2WVTGScbuD9-77" style="edgeStyle=orthogonalEdgeStyle;rounded=0;orthogonalLoop=1;jettySize=auto;html=1;exitX=0.5;exitY=1;exitDx=0;exitDy=0;startArrow=none;startFill=0;endArrow=none;endFill=0;strokeWidth=5;" edge="1" parent="1" source="2hWn7nPDc2WVTGScbuD9-48" target="2hWn7nPDc2WVTGScbuD9-67">
          <mxGeometry relative="1" as="geometry" />
        </mxCell>
        <mxCell id="2hWn7nPDc2WVTGScbuD9-48" value="Electronic Speed Controllers" style="rounded=1;whiteSpace=wrap;html=1;fillColor=#e1d5e7;strokeColor=#9673a6;" vertex="1" parent="1">
          <mxGeometry x="147.5" y="410" width="175" height="100" as="geometry" />
        </mxCell>
        <mxCell id="2hWn7nPDc2WVTGScbuD9-71" style="edgeStyle=orthogonalEdgeStyle;rounded=0;orthogonalLoop=1;jettySize=auto;html=1;exitX=0;exitY=0.5;exitDx=0;exitDy=0;startArrow=none;startFill=0;endArrow=none;endFill=0;endSize=2;strokeWidth=2;" edge="1" parent="1" source="2hWn7nPDc2WVTGScbuD9-54" target="2hWn7nPDc2WVTGScbuD9-65">
          <mxGeometry relative="1" as="geometry" />
        </mxCell>
        <mxCell id="2hWn7nPDc2WVTGScbuD9-74" style="edgeStyle=orthogonalEdgeStyle;rounded=0;orthogonalLoop=1;jettySize=auto;html=1;exitX=0;exitY=0.5;exitDx=0;exitDy=0;entryX=1;entryY=0.5;entryDx=0;entryDy=0;startArrow=none;startFill=0;endArrow=none;endFill=0;endSize=2;strokeWidth=4;" edge="1" parent="1" source="2hWn7nPDc2WVTGScbuD9-54" target="2hWn7nPDc2WVTGScbuD9-48">
          <mxGeometry relative="1" as="geometry" />
        </mxCell>
        <mxCell id="2hWn7nPDc2WVTGScbuD9-54" value="Power Distribution Board" style="rounded=1;whiteSpace=wrap;html=1;" vertex="1" parent="1">
          <mxGeometry x="407.5" y="430" width="120" height="60" as="geometry" />
        </mxCell>
        <mxCell id="2hWn7nPDc2WVTGScbuD9-55" value="Power" style="text;html=1;strokeColor=none;fillColor=none;align=center;verticalAlign=middle;whiteSpace=wrap;rounded=0;" vertex="1" parent="1">
          <mxGeometry x="447.5" y="330" width="40" height="20" as="geometry" />
        </mxCell>
        <mxCell id="2hWn7nPDc2WVTGScbuD9-72" style="edgeStyle=orthogonalEdgeStyle;rounded=0;orthogonalLoop=1;jettySize=auto;html=1;exitX=0.5;exitY=1;exitDx=0;exitDy=0;entryX=0.5;entryY=0;entryDx=0;entryDy=0;startArrow=none;startFill=0;endArrow=none;endFill=0;endSize=2;strokeWidth=14;" edge="1" parent="1" source="2hWn7nPDc2WVTGScbuD9-57" target="2hWn7nPDc2WVTGScbuD9-54">
          <mxGeometry relative="1" as="geometry" />
        </mxCell>
        <mxCell id="2hWn7nPDc2WVTGScbuD9-57" value="&lt;span&gt;High Performance Lithium Polymer Battery&lt;/span&gt;" style="rounded=1;whiteSpace=wrap;html=1;" vertex="1" parent="1">
          <mxGeometry x="410" y="360" width="120" height="60" as="geometry" />
        </mxCell>
        <mxCell id="2hWn7nPDc2WVTGScbuD9-64" style="edgeStyle=orthogonalEdgeStyle;shape=link;rounded=0;orthogonalLoop=1;jettySize=auto;html=1;exitX=1;exitY=0.5;exitDx=0;exitDy=0;endArrow=none;endFill=0;strokeWidth=1;" edge="1" parent="1" source="2hWn7nPDc2WVTGScbuD9-60" target="2hWn7nPDc2WVTGScbuD9-41">
          <mxGeometry relative="1" as="geometry" />
        </mxCell>
        <mxCell id="2hWn7nPDc2WVTGScbuD9-60" value="Software Stack" style="rounded=1;whiteSpace=wrap;html=1;" vertex="1" parent="1">
          <mxGeometry x="310" y="140" width="120" height="100" as="geometry" />
        </mxCell>
        <mxCell id="2hWn7nPDc2WVTGScbuD9-65" value="Power" style="rounded=0;whiteSpace=wrap;html=1;" vertex="1" parent="1">
          <mxGeometry x="305" y="280" width="130" height="20" as="geometry" />
        </mxCell>
        <mxCell id="2hWn7nPDc2WVTGScbuD9-67" value="Motor" style="rounded=1;whiteSpace=wrap;html=1;" vertex="1" parent="1">
          <mxGeometry x="160" y="550" width="120" height="60" as="geometry" />
        </mxCell>
        <mxCell id="2hWn7nPDc2WVTGScbuD9-68" value="Motor" style="rounded=1;whiteSpace=wrap;html=1;" vertex="1" parent="1">
          <mxGeometry x="170" y="560" width="120" height="60" as="geometry" />
        </mxCell>
        <mxCell id="2hWn7nPDc2WVTGScbuD9-69" value="Motor" style="rounded=1;whiteSpace=wrap;html=1;" vertex="1" parent="1">
          <mxGeometry x="180" y="570" width="120" height="60" as="geometry" />
        </mxCell>
        <mxCell id="2hWn7nPDc2WVTGScbuD9-70" value="Motors" style="rounded=1;whiteSpace=wrap;html=1;" vertex="1" parent="1">
          <mxGeometry x="190" y="580" width="120" height="60" as="geometry" />
        </mxCell>
        <mxCell id="2hWn7nPDc2WVTGScbuD9-76" style="edgeStyle=orthogonalEdgeStyle;rounded=0;orthogonalLoop=1;jettySize=auto;html=1;exitX=0.5;exitY=1;exitDx=0;exitDy=0;entryX=0.5;entryY=0;entryDx=0;entryDy=0;startArrow=none;startFill=0;endArrow=none;endFill=0;strokeWidth=1;shape=link;" edge="1" parent="1" source="2hWn7nPDc2WVTGScbuD9-75" target="2hWn7nPDc2WVTGScbuD9-48">
          <mxGeometry relative="1" as="geometry" />
        </mxCell>
        <mxCell id="2hWn7nPDc2WVTGScbuD9-75" value="Power" style="rounded=0;whiteSpace=wrap;html=1;" vertex="1" parent="1">
          <mxGeometry x="250" y="280" width="55" height="20" as="geometry" />
        </mxCell>
        <mxCell id="2hWn7nPDc2WVTGScbuD9-83" value="" style="shape=actor;whiteSpace=wrap;html=1;" vertex="1" parent="1">
          <mxGeometry x="322.5" y="930" width="40" height="60" as="geometry" />
        </mxCell>
      </root>
    </mxGraphModel>
  </diagram>
</mxfile>
